<svg width="334" height="281" xmlns="http://www.w3.org/2000/svg" xmlns:xlink="http://www.w3.org/1999/xlink" overflow="hidden"><defs><clipPath id="clip0"><rect x="440" y="293" width="334" height="281"/></clipPath></defs><g clip-path="url(#clip0)" transform="translate(-440 -293)"><path d="M443 433C443 357.337 516.201 296 606.5 296 696.799 296 770 357.337 770 433 770 508.663 696.799 570 606.5 570 516.201 570 443 508.663 443 433Z" stroke="#FFFFFF" stroke-width="6" stroke-miterlimit="8" fill="#70AD47" fill-rule="evenodd"/><path d="M511.5 369.501C511.5 351.827 525.827 337.5 543.501 337.5L671.499 337.5C689.173 337.5 703.5 351.827 703.5 369.501L703.5 497.499C703.5 515.173 689.173 529.5 671.499 529.5L543.501 529.5C525.827 529.5 511.5 515.173 511.5 497.499Z" stroke="#FFFFFF" stroke-width="1.33333" stroke-miterlimit="8" fill="#FFFFFF" fill-rule="evenodd"/><rect x="531.5" y="360.5" width="42" height="38" stroke="#000000" stroke-width="1.33333" stroke-miterlimit="8"/><rect x="538.5" y="365.5" width="27" height="28" stroke="#FFFFFF" stroke-width="1.33333" stroke-miterlimit="8" fill="#FFFFFF"/><rect x="543.5" y="371.5" width="17" height="16" stroke="#000000" stroke-width="1.33333" stroke-miterlimit="8"/><rect x="649.5" y="360.5" width="42" height="39" stroke="#000000" stroke-width="1.33333" stroke-miterlimit="8"/><rect x="657.5" y="366.5" width="27" height="27" stroke="#FFFFFF" stroke-width="1.33333" stroke-miterlimit="8" fill="#FFFFFF"/><rect x="662.5" y="371.5" width="17" height="16" stroke="#000000" stroke-width="1.33333" stroke-miterlimit="8"/><rect x="649.5" y="472.5" width="42" height="39" stroke="#000000" stroke-width="1.33333" stroke-miterlimit="8"/><rect x="657.5" y="477.5" width="27" height="28" stroke="#FFFFFF" stroke-width="1.33333" stroke-miterlimit="8" fill="#FFFFFF"/><rect x="662.5" y="483.5" width="17" height="16" stroke="#000000" stroke-width="1.33333" stroke-miterlimit="8"/><path d="M0 0 13.1282 0 13.1282 12.6863 26.2565 12.6863" stroke="#000000" stroke-width="4" stroke-miterlimit="8" fill="none" fill-rule="evenodd" transform="matrix(1.83697e-16 1 1 -1.83697e-16 531 411)"/><path d="M0 0 22.4823 0 22.4823 16.2292 44.9646 16.2292" stroke="#000000" stroke-width="4" stroke-miterlimit="8" fill="none" fill-rule="evenodd" transform="matrix(-1 1.22465e-16 1.22465e-16 1 690.965 405)"/><path d="M589 493 611.82 493 611.82 505.051 634.64 505.051" stroke="#000000" stroke-width="4" stroke-miterlimit="8" fill="none" fill-rule="evenodd"/><path d="M0 0 13.1282 0 13.1282 12.6863 26.2565 12.6863" stroke="#000000" stroke-width="4" stroke-miterlimit="8" fill="none" fill-rule="evenodd" transform="matrix(1.83697e-16 1 1 -1.83697e-16 547 422)"/><path d="M0 0 32.0949 0 32.0949 29.0878 58.2433 29.0878" stroke="#000000" stroke-width="4" stroke-miterlimit="8" fill="none" fill-rule="evenodd" transform="matrix(-1 1.22465e-16 1.22465e-16 1 645.243 464)"/><path d="M0 0 13.1282 0 13.1282 12.6863 26.2565 12.6863" stroke="#000000" stroke-width="4" stroke-miterlimit="8" fill="none" fill-rule="evenodd" transform="matrix(1.83697e-16 1 1 -1.83697e-16 587 385)"/><path d="M0 0 13.1282 0 13.1282 12.6863 26.2565 12.6863" stroke="#000000" stroke-width="4" stroke-miterlimit="8" fill="none" fill-rule="evenodd" transform="matrix(1.83697e-16 1 1 -1.83697e-16 614 409)"/><path d="M0 0 15.2233 0 15.2233 17.616 30.4466 17.616" stroke="#000000" stroke-width="4" stroke-miterlimit="8" fill="none" fill-rule="evenodd" transform="matrix(1.83697e-16 1 1 -1.83697e-16 542 433)"/><rect x="549.5" y="409.5" width="13" height="24" stroke="#000000" stroke-width="1.33333" stroke-miterlimit="8"/><rect x="542.5" y="464.5" width="31" height="5" stroke="#000000" stroke-width="1.33333" stroke-miterlimit="8"/><rect x="657.5" y="422.5" width="26" height="9" stroke="#000000" stroke-width="1.33333" stroke-miterlimit="8"/><rect x="547.5" y="499.5" width="37" height="10" stroke="#000000" stroke-width="1.33333" stroke-miterlimit="8"/><rect x="547.5" y="483.5" width="10" height="25" stroke="#000000" stroke-width="1.33333" stroke-miterlimit="8"/><rect x="575.5" y="473.5" width="10" height="25" stroke="#000000" stroke-width="1.33333" stroke-miterlimit="8"/><rect x="575.5" y="428.5" width="25" height="10" stroke="#000000" stroke-width="1.33333" stroke-miterlimit="8"/><rect x="586.5" y="368.5" width="25" height="5" stroke="#000000" stroke-width="1.33333" stroke-miterlimit="8"/><rect x="617.5" y="391.5" width="25" height="5" stroke="#000000" stroke-width="1.33333" stroke-miterlimit="8"/><rect x="586.5" y="373.5" width="5" height="24" stroke="#000000" stroke-width="1.33333" stroke-miterlimit="8"/><rect x="648.5" y="424.5" width="4" height="25" stroke="#000000" stroke-width="1.33333" stroke-miterlimit="8"/><rect x="663.5" y="457.5" width="25" height="5" stroke="#000000" stroke-width="1.33333" stroke-miterlimit="8"/><rect x="604.5" y="439.5" width="5" height="25" stroke="#000000" stroke-width="1.33333" stroke-miterlimit="8"/><rect x="609.5" y="447.5" width="25" height="5" stroke="#000000" stroke-width="1.33333" stroke-miterlimit="8"/><rect x="603.5" y="373.5" width="5" height="25" stroke="#000000" stroke-width="1.33333" stroke-miterlimit="8"/><rect x="629.5" y="366.5" width="5" height="25" stroke="#000000" stroke-width="1.33333" stroke-miterlimit="8"/><rect x="624.5" y="472.5" width="5" height="25" stroke="#000000" stroke-width="1.33333" stroke-miterlimit="8"/><rect x="624.5" y="480.5" width="25" height="5" stroke="#000000" stroke-width="1.33333" stroke-miterlimit="8"/><rect x="585.5" y="435.5" width="5" height="25" stroke="#000000" stroke-width="1.33333" stroke-miterlimit="8"/><rect x="586.5" y="472.5" width="25" height="5" stroke="#000000" stroke-width="1.33333" stroke-miterlimit="8"/><rect x="639.5" y="486.5" width="5" height="24" stroke="#000000" stroke-width="1.33333" stroke-miterlimit="8"/><rect x="529.5" y="444.5" width="5" height="25" stroke="#000000" stroke-width="1.33333" stroke-miterlimit="8"/><rect x="530.5" y="489.5" width="25" height="5" stroke="#000000" stroke-width="1.33333" stroke-miterlimit="8"/></g></svg>